<?xml version="1.0" ?><!DOCTYPE svg  PUBLIC '-//W3C//DTD SVG 1.1//EN'  'http://www.w3.org/Graphics/SVG/1.1/DTD/svg11.dtd'><svg enable-background="new 0 0 512 433.021" height="433.021px" id="Layer_1" version="1.1" viewBox="0 0 512 433.021" width="512px" xml:space="preserve" xmlns="http://www.w3.org/2000/svg" xmlns:xlink="http://www.w3.org/1999/xlink"><g id="meanicons_x5F_13"><g><path d="M489.646,54.855l22.697-54.878h-512v182.745h150.059v18.944c0,8.289,6.764,15.135,15.098,15.135h128.744    c8.358,0,15.12-6.846,15.12-15.135v-18.944h127.373l18.809-45.438h34.102v-18.596h12.396V64.99h-12.396V54.855H489.646z"/><path d="M244.456,330.049v-87.656h-50.529v87.656c-9.836,5.166-17.851,13.155-23.012,22.989H49.345v50.53h121.57    c9.141,17.404,27.216,29.431,48.265,29.431c30.217,0,54.708-24.515,54.708-54.706C273.889,357.24,261.893,339.198,244.456,330.049    z"/></g></g><g id="Layer_1_1_"/></svg>