<?xml version="1.0" ?><svg fill="#5051F9" xmlns="http://www.w3.org/2000/svg" id="_레이어_1_사본" data-name="레이어 1 사본" viewBox="0 0 100 100"><defs><style>
      .cls-1 {
        stroke-width: 0px;
      }
    </style></defs><path class="cls-1" d="m61.2880859,29.9477539c-1.4394531,0-2.8789062-.5483398-3.9746094-1.644043-1.0625-1.0615234-1.6474609-2.4736328-1.6474609-3.9750977s.5849609-2.9135742,1.6474609-3.9750977c2.1914062-2.1914062,5.7578125-2.1923828,7.9492188,0,2.1914062,2.1918945,2.1914062,5.7583008,0,7.9501953h0c-1.0957031,1.0957031-2.5351562,1.644043-3.9746094,1.644043Zm0-8.7392578c-.7988281,0-1.5986328.3041992-2.2070312.9125977-.5898438.5898438-.9150391,1.3740234-.9150391,2.2075195s.3251953,1.6176758.9150391,2.2075195c1.2167969,1.2167969,3.1972656,1.2167969,4.4140625,0,1.2167969-1.2172852,1.2167969-3.1977539,0-4.4150391-.6083984-.6083984-1.4082031-.9125977-2.2070312-.9125977Zm3.0908203,6.2114258h.0097656-.0097656Z"/><path class="cls-1" d="m35.6586914,48.1357422c-2.409668,0-5.4526367-1.4882812-8.1640625-4.199707-4.0576172-4.0571289-5.3759766-8.8579102-3.0668945-11.1669922,2.3076172-2.3095703,7.1088867-.9907227,11.1665039,3.0668945,4.0571289,4.0571289,5.3754883,8.8579102,3.0668945,11.1669922h0c-.765625.7661133-1.8061523,1.1328125-3.0024414,1.1328125Zm2.1186523-2.0166016h.0097656-.0097656Zm-10.3525391-11.9882812c-.5332031,0-.9580078.1342773-1.2294922.4057617-1.0771484,1.0776367.0053711,4.5703125,3.0668945,7.6318359,1.5063477,1.5063477,3.2700195,2.6635742,4.8383789,3.175293,1.2666016.4125977,2.3100586.3725586,2.7929688-.1083984,1.0771484-1.0776367-.0053711-4.5703125-3.0668945-7.6318359-2.2900391-2.2895508-4.8208008-3.4726562-6.4018555-3.4726562Z"/><path class="cls-1" d="m63.3251953,36.0537109c-.5869141.0004883-1.1103516-.4150391-1.2265625-1.012207-.1308594-.6777344.3125-1.3339844.9902344-1.4648438,1.8447266-.3574219,3.5253906-1.2519531,4.8603516-2.5864258,3.6728516-3.6733398,3.6728516-9.6499023,0-13.3232422-3.671875-3.671875-9.6484375-3.6728516-13.3222656,0-1.8535156,1.8535156-2.8320312,4.3178711-2.7558594,6.9389648.0205078.6899414-.5224609,1.2661133-1.2124023,1.2861328-.7006836.0273438-1.2661133-.5229492-1.2861328-1.2128906-.0957031-3.2685547,1.175293-6.46875,3.4868164-8.7797852,2.2509766-2.2514648,5.2451172-3.4912109,8.4287109-3.4912109s6.1777344,1.2397461,8.4287109,3.4912109c4.6474609,4.6479492,4.6474609,12.2104492,0,16.8583984-1.6884766,1.6889648-3.8164062,2.8208008-6.1533203,3.2729492-.0800781.015625-.1601562.0229492-.2382812.0229492Z"/><path class="cls-1" d="m36.5112305,54.7119141c-.8637695,0-1.7626953-.0859375-2.6884766-.2597656-3.8076172-.7167969-7.6499023-2.8564453-10.8188477-6.0258789-3.1694336-3.1689453-5.309082-7.0112305-6.0253906-10.8183594-.7490234-3.9804688.1308594-7.4648438,2.4770508-9.8110352,4.7104492-4.7099609,13.9643555-3.1171875,20.6293945,3.5483398.4882812.4882812.4882812,1.2792969,0,1.7675781s-1.2792969.4882812-1.7675781,0c-5.6904297-5.6904297-13.3588867-7.2832031-17.0942383-3.5483398-3.734375,3.7348633-2.1425781,11.402832,3.5483398,17.0942383,2.8168945,2.8168945,6.1953125,4.7124023,9.5131836,5.3364258,3.1455078.5878906,5.8364258-.0449219,7.5810547-1.7880859.4882812-.4882812,1.2792969-.4882812,1.7675781,0s.4882812,1.2792969,0,1.7675781c-1.800293,1.8007812-4.2709961,2.7373047-7.1220703,2.7373047Z"/><path class="cls-1" d="m50.5893555,52.7929688c-.3203125,0-.6401367-.1220703-.8842773-.3662109l-.6323242-.6328125c-.4106445-.4238281-2.4941406-2.3110352-5.331543.0664062-.5283203.4443359-1.3168945.3730469-1.7607422-.1552734-.4433594-.5292969-.3740234-1.3173828.1552734-1.7607422,3.8242188-3.2060547,7.3847656-1.3295898,8.7338867.1118164l.6040039.6030273c.4882812.4882812.4873047,1.2802734-.0009766,1.7675781-.2441406.2441406-.5634766.3662109-.8833008.3662109Z"/><path class="cls-1" d="m80.1376953,82.3408203c-.3203125,0-.6396484-.1220703-.8837891-.3662109l-23.9443359-23.9443359c-.4882812-.4882812-.4882812-1.2792969,0-1.7675781s1.2792969-.4882812,1.7675781,0l22.9833984,22.9824219c.4785156-.7041016.7197266-1.4169922.7177734-2.1269531-.0039062-1.5429688-1.1425781-2.6875-1.1542969-2.6992188l-24.3144531-24.3134766c-.4882812-.487793-.4882812-1.2792969,0-1.7675781s1.2792969-.4882812,1.7675781,0l24.3037109,24.3027344c.0595703.0566406,1.8720703,1.8291016,1.8974609,4.4296875.0166016,1.7402344-.7421875,3.3896484-2.2568359,4.9042969-.2441406.2441406-.5634766.3662109-.8837891.3662109Z"/><path class="cls-1" d="m50.5893555,44.8676758c-.3198242,0-.6396484-.1220703-.8837891-.3662109l-12.328125-12.328125c-.4882812-.4882812-.4882812-1.2792969,0-1.7675781s1.2792969-.4882812,1.7675781,0l12.3286133,12.328125c.4873047.4882812.4873047,1.2792969,0,1.7675781-.2441406.2441406-.5644531.3662109-.8842773.3662109Z"/><path class="cls-1" d="m56.1933594,87.5917969c-2.1416016,0-3.8447266-.6298828-5.0625-1.8720703-1.8217773-1.8574219-1.793457-4.3916016-1.7915039-4.4990234V24.8061523c0-.6904297.5595703-1.25,1.25-1.25.6899414,0,1.2504883.5595703,1.2504883,1.25v56.4389648c-.0009766.0322266.0029297,1.6464844,1.0917969,2.7402344.5009766.5039062,1.1748047.8369141,2.0117188.9970703v-41.3227539c-.1523438-2.9760742,1.3603516-9.0097656,8.1875-10.090332.6787109-.1123047,1.3212891.3564453,1.4296875,1.0390625.1083984.6816406-.3574219,1.3217773-1.0390625,1.4296875-6.2939453.996582-6.0908203,7.2949219-6.0791016,7.5625l.0009766,42.7412109c0,.6904297-.5595703,1.25-1.25,1.25Z"/><path class="cls-1" d="m53.6650391,49.5253906c-2.1445312,0-3.7231445-1.8466797-3.8999023-2.0620117-.4379883-.5336914-.3603516-1.3212891.1733398-1.7592773.53125-.4370117,1.3164062-.3603516,1.7558594.1694336.2617188.3115234,1.1796875,1.1582031,2.0263672,1.1508789.4853516-.0224609.9716797-.3808594,1.4443359-1.0649414.3925781-.5678711,1.171875-.7114258,1.7392578-.3168945.5683594.3925781.7099609,1.1713867.3173828,1.7387695-1.1777344,1.7026367-2.5009766,2.1040039-3.4033203,2.1411133-.0517578.0019531-.1025391.0029297-.1533203.0029297Z"/></svg>