<?xml version="1.0" ?><svg fill="#5051F9" xmlns="http://www.w3.org/2000/svg" id="_레이어_1_사본" data-name="레이어 1 사본" viewBox="0 0 100 100"><defs><style>
      .cls-1 {
        stroke-width: 0px;
      }
    </style></defs><path class="cls-1" d="m55.1230469,38.8388672c-.1464844,0-.2939453-.0258789-.4355469-.078125l-6.1259766-2.2773438c-.4897461-.1821289-.8144531-.6494141-.8144531-1.171875v-9.1083984c0-.5224609.324707-.9897461.8144531-1.171875l6.1259766-2.2768555c.3847656-.1416016.8125-.0883789,1.1494141.1455078.3359375.2333984.5361328.6171875.5361328,1.0263672v13.6625977c0,.4091797-.2001953.7929688-.5361328,1.0263672-.2128906.1474609-.4619141.2236328-.7138672.2236328Zm-4.8759766-4.3959961l3.6259766,1.3476562v-10.065918l-3.6259766,1.3476562v7.3706055Z"/><path class="cls-1" d="m48.9970703,36.5615234h-7.6987305c-.0981445,0-.1958008-.0117188-.2910156-.0341797l-7.6987305-1.8432617c-.5625-.1347656-.9589844-.6376953-.9589844-1.2158203v-4.5541992c0-.5302734.3344727-1.0029297.8349609-1.1791992l7.6987305-2.7109375c.1333008-.046875.2734375-.0708008.4150391-.0708008h7.6987305c.6904297,0,1.25.5595703,1.25,1.25v9.1083984c0,.6904297-.5595703,1.25-1.25,1.25Zm-7.5512695-2.5h6.3012695v-6.6083984h-6.2348633l-6.6625977,2.3461914v2.6831055l6.5961914,1.5791016Z"/><path class="cls-1" d="m79.0869141,39.8691406h-23.9638672c-.6904297,0-1.25-.5595703-1.25-1.25v-16.3735352c0-.6904297.5595703-1.25,1.25-1.25h24.0722656c4.4863281,0,8.1357422,3.6494141,8.1357422,8.1352539v2.4941406c0,4.5458984-3.6982422,8.2441406-8.2441406,8.2441406Zm-22.7138672-2.5h22.7138672c3.1669922,0,5.7441406-2.5766602,5.7441406-5.7441406v-2.4941406c0-3.1074219-2.5283203-5.6352539-5.6357422-5.6352539h-22.8222656v13.8735352Z"/><path class="cls-1" d="m78.4833984,65.4589844h-13.9589844c-.6904297,0-1.25-.5595703-1.25-1.25v-4.7666016c0-.3515625.1474609-.6865234.4072266-.9228516.2597656-.2373047.6054688-.3515625.9560547-.3222656,1.1689453.1064453,2.6572266.0458984,3.0761719-.8505859.1875-.4033203.0878906-.9550781-.2480469-1.3740234l-4.4511719-5.559082c-1.4267578-1.78125-1.4150391-4.2797852.0273438-6.0751953.4667969-.5805664,1.2138672-1.6806641.9755859-2.5297852-.2441406-.8671875-1.4775391-1.4750977-2.46875-1.8330078-.6494141-.2338867-.9863281-.9501953-.7519531-1.5996094s.9521484-.9858398,1.5996094-.7519531c2.2460938.8095703,3.6015625,1.9902344,4.0273438,3.5087891.4130859,1.4697266-.0693359,3.0751953-1.4326172,4.7714844-.703125.875-.7138672,2.0869141-.0253906,2.9467773l4.4511719,5.559082c.9306641,1.1611328,1.1513672,2.7275391.5625,3.9912109-.4902344,1.0537109-1.6181641,2.2294922-4.2050781,2.3271484v2.2304688h11.4589844v-24.3398438c0-.6904297.5595703-1.25,1.25-1.25s1.25.5595703,1.25,1.25v25.5898438c0,.6904297-.5595703,1.25-1.25,1.25Z"/><path class="cls-1" d="m83.6953125,71.8935547h-28.5722656c-.6904297,0-1.25-.5595703-1.25-1.25v-6.4609375c0-4.9794922,4.0507812-9.0302734,9.0302734-9.0302734h5.8652344c.6904297,0,1.25.5595703,1.25,1.25s-.5595703,1.25-1.25,1.25h-5.8652344c-3.6005859,0-6.5302734,2.9296875-6.5302734,6.5302734v5.2109375h26.0722656v-10.3525391c0-.765625-.6220703-1.3886719-1.3876953-1.3886719h-2.5742188c-.6904297,0-1.25-.5595703-1.25-1.25s.5595703-1.25,1.25-1.25h2.5742188c2.1435547,0,3.8876953,1.7441406,3.8876953,3.8886719v11.6025391c0,.6904297-.5595703,1.25-1.25,1.25Z"/><path class="cls-1" d="m81.6943359,79.0048828h-28.1113281c-.8515625,0-1.5722656-.3652344-1.9755859-1.0019531-.4697266-.7392578-.4589844-1.7167969.0283203-2.7519531l2.3505859-5.1279297c.2880859-.6279297,1.0302734-.9042969,1.6572266-.6162109.6279297.2880859.9033203,1.0302734.6162109,1.6572266l-2.3564453,5.1396484c-.0351562.0742188-.0615234.1396484-.0820312.1972656l27.8730469.0039062c.4140625,0,.7509766-.3369141.7509766-.7519531v-5.109375c0-.6904297.5595703-1.25,1.25-1.25s1.25.5595703,1.25,1.25v5.109375c0,1.7929688-1.4580078,3.2519531-3.2509766,3.2519531Zm-27.9306641-2.2314453h.0097656-.0097656Z"/><path class="cls-1" d="m64.5751953,45.2631836h-4.4648438c-.5761719,0-1.0771484-.3935547-1.2138672-.953125l-1.2568359-5.1445312c-.1640625-.6708984.2460938-1.347168.9169922-1.5112305.6669922-.1665039,1.3476562.246582,1.5107422.9174805l1.0244141,4.1914062h3.4833984c.6904297,0,1.25.5595703,1.25,1.25s-.5595703,1.25-1.25,1.25Z"/><path class="cls-1" d="m32.9487305,33.4711914c-.0219727,0-.0439453-.0004883-.065918-.0019531l-19.0302734-1.0029297c-.6635742-.034668-1.184082-.5834961-1.184082-1.2480469s.5205078-1.2133789,1.184082-1.2480469l19.0302734-1.0029297c.3369141-.0253906.6772461.1049805.9262695.3413086.2485352.2358398.3896484.5639648.3896484.9067383v2.0058594c0,.3427734-.1411133.6708984-.3896484.9067383-.2329102.2211914-.5410156.3432617-.8603516.3432617Z"/><path class="cls-1" d="m77.9453125,34.3569336h-15.4335938c-.6904297,0-1.25-.5595703-1.25-1.25v-5.7832031c0-.6904297.5595703-1.25,1.25-1.25h15.4335938c.6904297,0,1.25.5595703,1.25,1.25v5.7832031c0,.6904297-.5595703,1.25-1.25,1.25Zm-14.1835938-2.5h12.9335938v-3.2832031h-12.9335938v3.2832031Z"/></svg>